{"title":"Red Hill (2010) 1080P MKV AC3+DTS NLSubs-DMT","uid":5975843,"size":6087797721,"categoryP":"video","categoryS":"hd___movies","magnet":"?xt=urn:btih:2fe5f2892dd191cd7e6b611bcde05230304b4e76&amp;dn=Red+Hill+%282010%29+1080P+MKV+AC3%2BDTS+NLSubs-DMT&amp;tr=udp%3A%2F%2Ftracker.openbittorrent.com%3A80&amp;tr=udp%3A%2F%2Fopen.demonii.com%3A1337&amp;tr=udp%3A%2F%2Ftracker.coppersurfer.tk%3A6969&amp;tr=udp%3A%2F%2Fexodus.desync.com%3A6969","seeders":2,"leechers":1,"uploader":"NLUPPER002","files":-1,"time":1290442495,"description":"Red Hill (2010) 1080P MKV AC3+DTS NLSubs-DMT\n\nAustraliÃƒÂ«\nActie / Thriller\n110 minuten\n\ngeregisseerd door Patrick Hughes\nmet Ryan Kwanten, Steve Bisley en Claire van der Boom\n\nRed Hill vertelt het verhaal van Shane Cooper (Ryan Kwanten), een jonge politieagent, \ndie terugkeert naar het kleine stadje Red Hill om samen met zijn zwangere vrouw een gezin te stichten. \nHet nieuws van een gevangenisontsnapping zorgt voor paniek bij de lokale wetshandhavers. Jimmy Conway, \neen tot levenslang veroordeelde moordenaar, keert terug naar het geÃƒÂ¯soleerde stadje om wraak te nemen. \nShane's eerste dienstdag loopt al snel uit op een nachtmerrie.\n--------------------------------------------------------------------------------------------------------\n\nPLOT\n\nA young police officer must survive his first day's duty in a small country town. \n--------------------------------------------------------------------------------------------------------\n &lt;a href=&quot;\nhttp://www.youtube.com/watch?v=_l-tCpokjvI&quot; rel=&quot;nofollow&quot; target=&quot;_NEW&quot;&gt;\nhttp://www.youtube.com/watch?v=_l-tCpokjvI&lt;/a&gt;\n\nMM:   &lt;a href=&quot; http://www.moviemeter.nl/film/63881&quot; rel=&quot;nofollow&quot; target=&quot;_NEW&quot;&gt; http://www.moviemeter.nl/film/63881&lt;/a&gt;\n\nIMDB:   &lt;a href=&quot; http://www.imdb.com/title/tt1530983/&quot; rel=&quot;nofollow&quot; target=&quot;_NEW&quot;&gt; http://www.imdb.com/title/tt1530983/&lt;/a&gt;\n---------------------------------------------------------------------------------------------------------\nINFO\n\nSource.........: 1080P BluRay \nFRAME RATE.....: 25.000Fps \nVIDEO CODEC....: X264\nAUDIO 1........: AC3 \nAUDIO 2........: DTS\nRESOLUTION.....: 1920x800\nRUNTIME........: 95 MINS \nGENERE.........: Crime | Thriller | Western      \nLANGUAGE.......: English \nSUBTITLES......: Dutch\n\nThanks To Bradje\n\nEnjoy\n\nGeneral\nComplete name                    : Red.Hill.2010.1080P.MKV.AC3.DTS.NLSubs-DMT.mkv\nFormat                           : Matroska\nFile size                        : 5.67 GiB\nDuration                         : 1h 37mn\nOverall bit rate                 : 8 355 Kbps\nMovie name                       : Red Hill (2010) 1080P.X264.NL.SUBBED.Bradje\nEncoded date                     : UTC 2010-11-22 06:35:06\nWriting application              : mkvmerge v3.3.0 ('Language') built on Mar 24 2010 14:59:24\nWriting library                  : libebml v0.8.0 + libmatroska v0.9.0\n\nVideo\nID                               : 1\nFormat                           : AVC\nFormat/Info                      : Advanced Video Codec\nFormat profile                   : &lt;a class=&quot;__cf_email__&quot; href=&quot;/cdn-cgi/l/email-protection&quot; data-cfemail=&quot;ffb7969897bfb3cbd1ce&quot;&gt;[email&amp;#160;protected]&lt;/a&gt;&lt;script cf-hash='f9e31' type=&quot;text/javascript&quot;&gt;\n/* &lt;![CDATA[ */!function(){try{var t=&quot;currentScript&quot;in document?document.currentScript:function(){for(var t=document.getElementsByTagName(&quot;script&quot;),e=t.length;e--;)if(t[e].getAttribute(&quot;cf-hash&quot;))return t[e]}();if(t&amp;&amp;t.previousSibling){var e,r,n,i,c=t.previousSibling,a=c.getAttribute(&quot;data-cfemail&quot;);if(a){for(e=&quot;&quot;,r=parseInt(a.substr(0,2),16),n=2;a.length-n;n+=2)i=parseInt(a.substr(n,2),16)^r,e+=String.fromCharCode(i);e=document.createTextNode(e),c.parentNode.replaceChild(e,c)}}}catch(u){}}();/* ]]&gt; */&lt;/script&gt;\nFormat settings, CABAC           : Yes\nFormat settings, ReFrames        : 5 frames\nMuxing mode                      : Container profile=&lt;a class=&quot;__cf_email__&quot; href=&quot;/cdn-cgi/l/email-protection&quot; data-cfemail=&quot;0f5a6164616078614f3b213e&quot;&gt;[email&amp;#160;protected]&lt;/a&gt;&lt;script cf-hash='f9e31' type=&quot;text/javascript&quot;&gt;\n/* &lt;![CDATA[ */!function(){try{var t=&quot;currentScript&quot;in document?document.currentScript:function(){for(var t=document.getElementsByTagName(&quot;script&quot;),e=t.length;e--;)if(t[e].getAttribute(&quot;cf-hash&quot;))return t[e]}();if(t&amp;&amp;t.previousSibling){var e,r,n,i,c=t.previousSibling,a=c.getAttribute(&quot;data-cfemail&quot;);if(a){for(e=&quot;&quot;,r=parseInt(a.substr(0,2),16),n=2;a.length-n;n+=2)i=parseInt(a.substr(n,2),16)^r,e+=String.fromCharCode(i);e=document.createTextNode(e),c.parentNode.replaceChild(e,c)}}}catch(u){}}();/* ]]&gt; */&lt;/script&gt;\nCodec ID                         : V_MPEG4/ISO/AVC\nDuration                         : 1h 37mn\nBit rate                         : 6 039 Kbps\nWidth                            : 1 920 pixels\nHeight                           : 800 pixels\nDisplay aspect ratio             : 2.40:1\nFrame rate                       : 23.976 fps\nColor space                      : YUV\nChroma subsampling               : 4:2:0\nBit depth                        : 8 bits\nScan type                        : Progressive\nBits/(Pixel*Frame)               : 0.164\nStream size                      : 4.10 GiB (72%)\nTitle                            : x264\nWriting library                  : x264 core 107 r1766 f9f0035\nEncoding settings                : cabac=1 / ref=5 / deblock=1:0:0 / analyse=0x3:0x133 / \nme=umh / subme=7 / psy=1 / psy_rd=1.00:0.00 / mixed_ref=1 / me_range=16 / chroma_me=1 / \ntrellis=1 / 8x8dct=1 / cqm=0 / deadzone=21,11 / fast_pskip=0 / chroma_qp_offset=-2 / \nthreads=12 / sliced_threads=0 / nr=0 / decimate=1 / interlaced=0 / constrained_intra=0 / \nbframes=3 / b_pyramid=2 / b_adapt=1 / b_bias=0 / direct=1 / weightb=1 / open_gop=0 / \nweightp=2 / keyint=250 / keyint_min=23 / scenecut=40 / intra_refresh=0 / rc_lookahead=40 / \nrc=crf / mbtree=1 / crf=20.0 / qcomp=0.60 / qpmin=10 / qpmax=51 / qpstep=4 / \nip_ratio=1.40 / aq=1:1.00\nLanguage                         : English\n\nAudio #1\nID                               : 2\nFormat                           : AC-3\nFormat/Info                      : Audio Coding 3\nMode extension                   : CM (complete main)\nCodec ID                         : A_AC3\nDuration                         : 1h 37mn\nBit rate mode                    : Constant\nBit rate                         : 640 Kbps\nChannel(s)                       : 6 channels\nChannel positions                : Front: L C R, Side: L R, LFE\nSampling rate                    : 48.0 KHz\nBit depth                        : 16 bits\nStream size                      : 445 MiB (8%)\nTitle                            : AC3\nLanguage                         : English\n\nAudio #2\nID                               : 3\nFormat                           : DTS\nFormat/Info                      : Digital Theater Systems\nCodec ID                         : A_DTS\nDuration                         : 1h 37mn\nBit rate mode                    : Constant\nBit rate                         : 1 510 Kbps\nChannel(s)                       : 6 channels\nChannel positions                : Front: L C R, Side: L R, LFE\nSampling rate                    : 48.0 KHz\nBit depth                        : 24 bits\nStream size                      : 1.02 GiB (18%)\nTitle                            : DTS\nLanguage                         : English\n\nText\nID                               : 4\nFormat                           : UTF-8\nCodec ID                         : S_TEXT/UTF8\nCodec ID/Info                    : UTF-8 Plain Text\nTitle                            : Subtitles\nLanguage                         : Dutch\n\nMenu\n00:00:00.000                     : en:Video Start\n00:05:00.000                     : en:Chapter 1 - 00 Hr 05 Min\n00:10:00.000                     : en:Chapter 2 - 00 Hr 10 Min\n00:15:00.000                     : en:Chapter 3 - 00 Hr 15 Min\n00:20:00.000                     : en:Chapter 4 - 00 Hr 20 Min\n00:25:00.000                     : en:Chapter 5 - 00 Hr 25 Min\n00:30:00.000                     : en:Chapter 6 - 00 Hr 30 Min\n00:35:00.000                     : en:Chapter 7 - 00 Hr 35 Min\n00:40:00.000                     : en:Chapter 8 - 00 Hr 40 Min\n00:45:00.000                     : en:Chapter 9 - 00 Hr 45 Min\n00:50:00.000                     : en:Chapter 10 - 00 Hr 50 Min\n00:55:00.000                     : en:Chapter 11 - 00 Hr 55 Min\n01:00:00.000                     : en:Chapter 12 - 01 Hr 00 Min\n01:05:00.000                     : en:Chapter 13 - 01 Hr 05 Min\n01:10:00.000                     : en:Chapter 14 - 01 Hr 10 Min\n01:15:00.000                     : en:Chapter 15 - 01 Hr 15 Min\n01:20:00.000                     : en:Chapter 16 - 01 Hr 20 Min\n01:25:00.000                     : en:Chapter 17 - 01 Hr 25 Min\n01:30:00.000                     : en:Chapter 18 - 01 Hr 30 Min\n01:35:00.000                     : en:Chapter 19 - 01 Hr 35 Min\n\n","torrent":{"xt":"urn:btih:2fe5f2892dd191cd7e6b611bcde05230304b4e76","amp;dn":"Red+Hill+%282010%29+1080P+MKV+AC3%2BDTS+NLSubs-DMT","amp;tr":["udp%3A%2F%2Ftracker.openbittorrent.com%3A80","udp%3A%2F%2Fopen.demonii.com%3A1337","udp%3A%2F%2Ftracker.coppersurfer.tk%3A6969","udp%3A%2F%2Fexodus.desync.com%3A6969"],"infoHash":"2fe5f2892dd191cd7e6b611bcde05230304b4e76","infoHashBuffer":{"type":"Buffer","data":[47,229,242,137,45,209,145,205,126,107,97,27,205,224,82,48,48,75,78,118]},"announce":[],"urlList":[]}}